<?xml version="1.0" encoding="UTF-8"?>
<svg version="1.1" xmlns="http://www.w3.org/2000/svg" width="225" height="225">
<path d="M0 0 C74.25 0 148.5 0 225 0 C225 74.25 225 148.5 225 225 C150.75 225 76.5 225 0 225 C0 150.75 0 76.5 0 0 Z " fill="#FDFDFD" transform="translate(0,0)"/>
<path d="M0 0 C2.15635681 1.05776978 2.15635681 1.05776978 4 3 C4.39601529 5.64086922 4.5340384 7.87136911 4.49829102 10.51318359 C4.50380981 11.27612228 4.50932861 12.03906097 4.51501465 12.82511902 C4.5243402 14.48166709 4.52443519 16.13828684 4.51642036 17.79484177 C4.5038122 20.41800548 4.51505974 23.04011348 4.53245544 25.66323853 C4.55919488 30.28753848 4.56474987 34.9115808 4.56335449 39.53594971 C4.5611288 46.93079827 4.57525209 54.32532717 4.61894035 61.72005081 C4.62877731 64.30209377 4.62006098 66.88363509 4.61024475 69.46566772 C4.61639026 71.05312426 4.62330242 72.64057808 4.63110352 74.22802734 C4.61952461 75.30205559 4.61952461 75.30205559 4.60771179 76.39778137 C4.65201264 80.77217642 5.31826308 83.52128314 8 87 C11.68719209 89.5180824 14.85592389 90.19382839 19.21484375 90.578125 C20.11195068 90.6596582 21.00905762 90.74119141 21.93334961 90.82519531 C22.61534424 90.88288086 23.29733887 90.94056641 24 91 C23.99111755 89.99632889 23.98223511 88.99265778 23.9730835 87.95857239 C23.89197992 78.49771273 23.8320261 69.03692365 23.79275131 59.57579517 C23.77188083 54.71175963 23.743573 49.84800483 23.69824219 44.98413086 C23.65476524 40.28976878 23.63085883 35.59567666 23.62049103 30.90112877 C23.61310298 29.11054929 23.59867574 27.31998451 23.57707977 25.52952003 C23.54802075 23.02041377 23.54404497 20.51242143 23.54589844 18.00317383 C23.53151733 17.26374039 23.51713623 16.52430695 23.50231934 15.76246643 C23.53111972 12.15672227 23.9220397 10.12556789 25.84088135 7.03495789 C28 5 28 5 31 4.4375 C34.75463361 5.1414938 35.72558849 5.94902638 38 9 C38.37411527 11.82482901 38.5073417 14.25324841 38.45410156 17.07324219 C38.45468567 17.88337265 38.45526978 18.69350311 38.45587158 19.52818298 C38.45308852 22.20151871 38.4219869 24.87373447 38.390625 27.546875 C38.38316338 29.40203238 38.37747007 31.25719764 38.37347412 33.11236572 C38.35821155 37.99190077 38.31892436 42.87095853 38.2746582 47.75030518 C38.23371894 52.73060652 38.21546598 57.71098509 38.1953125 62.69140625 C38.15243073 72.46114704 38.08417182 82.23053381 38 92 C40.58935677 91.62966176 43.1682182 91.23014117 45.75 90.8125 C46.47960937 90.71130859 47.20921875 90.61011719 47.9609375 90.50585938 C51.63404114 89.88811013 53.60301749 89.34012867 56.48547363 86.8704834 C58.38439846 83.2714492 58.54546147 80.23159663 58.48242188 76.25976562 C58.48829063 75.11491951 58.48829063 75.11491951 58.49427795 73.94694519 C58.50023941 72.29587121 58.49710736 70.64474452 58.4858551 68.99369812 C58.46856837 66.37877517 58.47611341 63.7649553 58.4901123 61.15002441 C58.51543749 55.59994084 58.50994666 50.05011787 58.5 44.5 C58.48847136 38.06715595 58.48962557 31.63484861 58.52406311 25.20207214 C58.53115355 22.62875263 58.51448554 20.05628454 58.49694824 17.48303223 C58.50265646 15.90209496 58.50947391 14.32116118 58.51757812 12.74023438 C58.50060631 11.67091927 58.50060631 11.67091927 58.48329163 10.58000183 C58.52666393 7.03665899 58.94974497 5.08052458 60.84265137 2.04748535 C63 0 63 0 66 -0.5 C69.41060008 0.06843335 70.63576834 0.49426897 73 3 C73.40816122 5.73168753 73.55725521 8.06625328 73.53344727 10.80102539 C73.54637062 11.99190765 73.54637062 11.99190765 73.55955505 13.20684814 C73.58229538 15.83744746 73.57545689 18.46698735 73.56640625 21.09765625 C73.57164173 22.93029598 73.57791793 24.76293301 73.58518982 26.5955658 C73.59561148 30.44331501 73.59101252 34.29069492 73.57641602 38.13842773 C73.55930598 43.04890666 73.58261702 47.95820694 73.61790562 52.86855412 C73.63997437 56.65809258 73.63841398 60.4473538 73.6301403 64.23693657 C73.6293244 66.04568199 73.63611832 67.85444851 73.65091133 69.66313362 C73.78282389 88.72764907 73.78282389 88.72764907 68 96 C61.70886448 101.67999375 53.52987558 105 45 105 C45.08564209 105.5983667 45.17128418 106.1967334 45.25952148 106.81323242 C45.65645077 109.60406609 46.04698363 112.39576204 46.4375 115.1875 C46.57220703 116.12787109 46.70691406 117.06824219 46.84570312 118.03710938 C48.65843404 131.07992939 49.23491719 144.03896269 49.29516602 157.19165039 C49.30668703 158.93359499 49.3271409 160.67550426 49.35668945 162.41723633 C49.60763702 177.30445548 49.48420342 192.78857914 38.8125 204.375 C34.84965331 206.66464476 31.47023308 206.92824512 27 206 C18.27122598 199.59889905 15.59936849 188.17645859 14 178 C13.387654 171.94779787 13.47130873 165.88729487 13.5625 159.8125 C13.57367098 158.1543784 13.58481974 156.49625666 13.59594727 154.83813477 C13.77556216 138.57248235 14.65056785 121.94907504 18 106 C16.63875 105.690625 16.63875 105.690625 15.25 105.375 C6.61876782 102.86121955 -2.2786164 98.99362966 -7 91 C-9.55306828 85.85575493 -10.44029328 81.69410645 -10.40405273 75.92504883 C-10.41091599 75.15016617 -10.41777924 74.37528351 -10.42485046 73.57691956 C-10.44302991 71.03676615 -10.43929579 68.4972352 -10.43359375 65.95703125 C-10.43815794 64.18299663 -10.44346422 62.40896377 -10.44947815 60.63493347 C-10.45839037 56.92720324 -10.4560055 53.21968867 -10.44604492 49.51196289 C-10.43452351 44.76034786 -10.45482447 40.00947249 -10.48396206 35.2579546 C-10.50229723 31.59908833 -10.50203757 27.94040053 -10.49632454 24.28149986 C-10.49617118 22.52920171 -10.50222783 20.77689159 -10.51461601 19.02463722 C-10.52948398 16.57820519 -10.51888331 14.1331561 -10.50170898 11.68676758 C-10.51137695 10.96408691 -10.52104492 10.24140625 -10.53100586 9.49682617 C-10.48109789 6.10413222 -10.21939118 4.29187947 -8.15614319 1.54692078 C-5.23254093 -0.55061203 -3.52538502 -0.51411865 0 0 Z " fill="#343434" transform="translate(43,12)"/>
<path d="M0 0 C6.39254043 0.92982406 9.83316474 5.50070955 13.73828125 10.3671875 C24.63141753 25.34296142 30.71112801 41.6371574 28.03613281 60.30029297 C27.06560009 66.23503381 25.97011214 72.14381095 24.8046875 78.04321289 C24.42236299 80.60127906 24.23894899 82.91910995 24.4375 85.5 C25.08589844 86.14066406 25.73429687 86.78132813 26.40234375 87.44140625 C29.07768362 90.14755617 29.00472787 91.68829845 29 95.4375 C28.8018352 101.92937889 28.8018352 101.92937889 26.0625 104.75 C23.4375 106.5 23.4375 106.5 21.4375 106.5 C21.52314209 107.09312988 21.60878418 107.68625977 21.69702148 108.29736328 C22.09474171 111.07254279 22.48487243 113.84874334 22.875 116.625 C23.00970703 117.55699219 23.14441406 118.48898438 23.28320312 119.44921875 C25.11575523 132.58995823 25.66826676 145.71573945 25.73266602 158.9675293 C25.74421005 160.6124734 25.76470016 162.25737934 25.79418945 163.90209961 C26.03196795 177.2615315 25.66461658 190.31180261 17.4375 201.5 C14.68576274 204.25173726 12.78518562 205.39054342 9.0625 206.5625 C4.8778076 206.49035013 3.18050073 205.73058225 0.00390625 203.13671875 C-8.74020354 194.00010528 -9.70130181 178.35120945 -9.765625 166.40234375 C-9.77245804 165.5384906 -9.77929108 164.67463745 -9.78633118 163.78460693 C-9.80335188 161.00219804 -9.80965633 158.2199579 -9.8125 155.4375 C-9.81450409 154.49435944 -9.81650818 153.55121887 -9.818573 152.57949829 C-9.82584975 138.64540446 -9.26505733 125.20882709 -6.5625 111.5 C-6.26666016 109.99373047 -6.26666016 109.99373047 -5.96484375 108.45703125 C-5.83207031 107.81121094 -5.69929687 107.16539063 -5.5625 106.5 C-6.366875 106.21125 -7.17125 105.9225 -8 105.625 C-10.5625 104.5 -10.5625 104.5 -11.5625 102.5 C-11.7630521 100.21370606 -11.87549364 97.91923545 -11.9375 95.625 C-11.98648438 94.39007813 -12.03546875 93.15515625 -12.0859375 91.8828125 C-11.91320312 90.76648438 -11.74046875 89.65015625 -11.5625 88.5 C-10.74030472 87.92159363 -9.91810944 87.34318726 -9.07099915 86.74725342 C-6.24765131 84.6743363 -6.24765131 84.6743363 -5.92326355 81.17169189 C-5.89116686 79.83520729 -5.88629055 78.49789739 -5.90307617 77.16113281 C-5.89259247 76.42903091 -5.88210876 75.69692902 -5.87130737 74.94264221 C-5.84256515 72.52903824 -5.84884724 70.11686939 -5.85546875 67.703125 C-5.84235308 66.02730512 -5.82704925 64.35150106 -5.80964661 62.67572021 C-5.76976782 58.26979243 -5.75960436 53.8642779 -5.75561523 49.45819092 C-5.74628915 44.96028077 -5.70887896 40.46261398 -5.67382812 35.96484375 C-5.60922313 27.14324056 -5.57600697 18.32181905 -5.5625 9.5 C-3.2525 9.5 -0.9425 9.5 1.4375 9.5 C1.4375 34.25 1.4375 59 1.4375 84.5 C6.3875 84.5 11.3375 84.5 16.4375 84.5 C16.55867188 83.37722656 16.67984375 82.25445312 16.8046875 81.09765625 C16.9727093 79.58579816 17.14206966 78.07408847 17.3125 76.5625 C17.44567627 75.38107422 17.44567627 75.38107422 17.58154297 74.17578125 C18.03010072 70.36658784 18.5318753 66.70288731 19.5625 63 C23.05208711 48.3323859 19.89882882 34.62887194 12.22119141 21.89770508 C6.86726884 13.24643887 6.86726884 13.24643887 -0.5625 6.5 C-1.8825 6.5 -3.2025 6.5 -4.5625 6.5 C-3.51907809 0.68664938 -3.51907809 0.68664938 0 0 Z " fill="#353535" transform="translate(157.5625,12.5)"/>
<path d="M0 0 C2.64 0 5.28 0 8 0 C8.48640156 3.54071054 8.96269282 7.08271756 9.4375 10.625 C9.57220703 11.6046875 9.70691406 12.584375 9.84570312 13.59375 C11.63984603 27.07170157 12.20904949 40.47855438 12.24023438 54.05957031 C12.25001361 56.62857582 12.28119676 59.1968032 12.3125 61.765625 C12.45848566 84.20145766 12.45848566 84.20145766 6 92 C3.6875 91.8125 3.6875 91.8125 1 91 C-6.59638374 80.4691618 -5.52243988 65.26591853 -5.4375 52.875 C-5.4361203 52.00669556 -5.4347406 51.13839111 -5.43331909 50.24377441 C-5.38395274 33.36474161 -4.28681741 16.40380826 0 0 Z " fill="#4B4B4B" transform="translate(71,117)"/>
<path d="M0 0 C2.97 0 5.94 0 9 0 C9.48602882 3.35329321 9.96387182 6.70745013 10.4375 10.0625 C10.57220703 10.98611328 10.70691406 11.90972656 10.84570312 12.86132812 C12.70312327 26.13508674 13.20640001 39.41402951 13.24023438 52.79833984 C13.25002197 55.13023501 13.28123489 57.4612753 13.3125 59.79296875 C13.47346093 82.35551762 13.47346093 82.35551762 7 90 C4.09332773 89.68576516 2.47037951 89.50342209 0.43603516 87.32617188 C-5.91753337 77.03429821 -4.47224139 62.12312295 -4.375 50.5 C-4.37200897 49.57367767 -4.36901794 48.64735535 -4.36593628 47.69296265 C-4.31636384 34.62801145 -3.80570716 21.83321537 -1.36376953 8.96337891 C-0.81249378 5.98796978 -0.40898934 2.99793156 0 0 Z " fill="#4B4B4B" transform="translate(161,119)"/>
<path d="M0 0 C6.5434555 1.10022703 10.4250738 6.82468757 14.12109375 11.9296875 C27.84600731 33.15271074 26.0179592 50.28096166 21.09375 73.91015625 C20.7328125 75.58980469 20.371875 77.26945312 20 79 C15.05 79 10.1 79 5 79 C5 54.25 5 29.5 5 4 C4.01 4 3.02 4 2 4 C2 3.01 2 2.02 2 1 C1.34 0.67 0.68 0.34 0 0 Z " fill="#B2B2B2" transform="translate(154,18)"/>
<path d="M0 0 C8.91 0 17.82 0 27 0 C27 2.64 27 5.28 27 8 C18.09 8 9.18 8 0 8 C0 5.36 0 2.72 0 0 Z " fill="#7B7B7B" transform="translate(152,104)"/>
<path d="M0 0 C2.86724686 0.57344937 3.8614515 0.8614515 6 3 C6.18769518 5.43937054 6.25198605 7.76414728 6.22705078 10.20361328 C6.22734283 10.9451767 6.22763489 11.68674011 6.22793579 12.45077515 C6.22653994 14.90740571 6.21096698 17.36373478 6.1953125 19.8203125 C6.19158327 21.52139114 6.18873587 23.22247192 6.18673706 24.92355347 C6.17909349 29.40510976 6.15943884 33.88653683 6.1373291 38.36804199 C6.11688622 42.93935396 6.10773868 47.51068677 6.09765625 52.08203125 C6.07619359 61.05474434 6.04204896 70.02736143 6 79 C5.67 79 5.34 79 5 79 C5 54.25 5 29.5 5 4 C4.01 4 3.02 4 2 4 C2 3.01 2 2.02 2 1 C1.34 0.67 0.68 0.34 0 0 Z " fill="#8F8F8F" transform="translate(154,18)"/>
</svg>
